<?xml version="1.0" encoding="UTF-8"?>
<svg version="1.1" xmlns="http://www.w3.org/2000/svg" width="692" height="211">
<path d="M0 0 C1.14072968 0.00007553 2.28145935 0.00015106 3.45675659 0.00022888 C4.6725943 0.00539017 5.88843201 0.01055145 7.14111328 0.01586914 C8.39779816 0.01728409 9.65448303 0.01869904 10.94924927 0.02015686 C14.27334518 0.02479465 17.5973712 0.03376359 20.92144775 0.04486084 C24.32018432 0.05513138 27.71892814 0.05966652 31.11767578 0.06469727 C37.77394495 0.0757084 44.43018133 0.09243317 51.08642578 0.11352539 C50.05960458 3.19398899 48.96514795 4.44838693 46.60498047 6.58642578 C45.00239699 8.09308596 45.00239699 8.09308596 43.79443359 10.10742188 C41.37315578 13.39349564 39.08850896 15.68616838 34.97634888 16.56393433 C28.63786704 17.25263468 22.26414313 17.08877343 15.89892578 16.98852539 C13.00815455 16.9750385 10.11776723 16.97277712 7.22697449 16.97952271 C5.43502477 16.98029938 3.64300422 16.96763348 1.85127258 16.93966675 C-2.53839013 16.9075967 -5.91751412 17.04179647 -9.91357422 19.11352539 C-9.91357422 20.10352539 -9.91357422 21.09352539 -9.91357422 22.11352539 C-8.77927979 22.13334473 -7.64498535 22.15316406 -6.47631836 22.17358398 C-2.23245576 22.25016368 2.01108714 22.3387966 6.25463867 22.4309082 C8.08465218 22.46898307 9.91473506 22.50387177 11.74487305 22.53540039 C14.38892263 22.58152172 17.03250336 22.6394337 19.67626953 22.69946289 C20.88620827 22.7167897 20.88620827 22.7167897 22.12059021 22.73446655 C29.34650993 22.91850879 37.22545427 23.49579026 43.08642578 28.11352539 C46.19310313 33.00956106 45.6450354 38.53459089 45.08642578 44.11352539 C43.78519823 49.14548762 41.53268355 52.13252169 37.21142578 54.98852539 C31.78838723 58.12817929 26.69004353 59.36490134 20.43847656 59.34057617 C18.48713303 59.34034958 18.48713303 59.34034958 16.49636841 59.34011841 C15.09149011 59.32990741 13.68661341 59.31947546 12.28173828 59.30883789 C10.83299963 59.30510385 9.38425844 59.30225872 7.93551636 59.30026245 C4.13790818 59.29265675 0.34045501 59.27303491 -3.45709229 59.25085449 C-7.33839827 59.23032977 -11.21972951 59.22124661 -15.10107422 59.21118164 C-22.70531125 59.18978584 -30.30942095 59.1556873 -37.91357422 59.11352539 C-34.71018973 52.50327867 -30.53976984 46.58969284 -23.91357422 43.11352539 C-15.72541544 41.02413315 -7.03990139 41.6608046 1.33642578 41.86352539 C3.64239338 41.87551707 5.94839597 41.88207578 8.25439453 41.88305664 C13.86700901 41.89716878 19.47548287 41.97861642 25.08642578 42.11352539 C25.41642578 40.79352539 25.74642578 39.47352539 26.08642578 38.11352539 C22.76553541 36.45308021 19.04125642 36.9126954 15.38720703 36.86743164 C13.60269725 36.83447541 11.81819216 36.80126409 10.03369141 36.76782227 C7.22065668 36.72054231 4.40763852 36.67614751 1.59448242 36.63671875 C-1.12065123 36.59677976 -3.83538388 36.54527038 -6.55029297 36.49243164 C-7.79911507 36.47981041 -7.79911507 36.47981041 -9.07316589 36.4669342 C-15.44901845 36.33327235 -20.80101291 35.95053523 -25.78857422 31.61352539 C-30.04039497 26.61138333 -29.36209451 21.45095098 -28.91357422 15.11352539 C-27.27090196 10.09424904 -24.34772072 6.91351453 -19.91357422 4.11352539 C-13.51135485 1.03381507 -7.08737641 -0.01574973 0 0 Z " fill="#F0F0F0" transform="translate(512.91357421875,75.886474609375)"/>
<path d="M0 0 C0.84195419 -0.00945648 1.68390839 -0.01891296 2.55137634 -0.02865601 C3.46069412 -0.02258331 4.3700119 -0.01651062 5.30688477 -0.01025391 C6.25080582 -0.01312408 7.19472687 -0.01599426 8.16725159 -0.01895142 C10.17042641 -0.02099472 12.17362106 -0.01544628 14.17675781 -0.00292969 C17.20563017 0.01295979 20.23313512 -0.00268548 23.26196289 -0.02197266 C49.2226901 -0.05377691 49.2226901 -0.05377691 58.38500977 8.76708984 C61.81741424 12.66968671 61.14059025 17.08678303 61.08032227 22.05615234 C60.626783 27.66294937 59.06202852 31.32608695 54.90454102 35.13427734 C51.69346487 37.63244666 48.45507416 39.59356395 44.81079102 41.38818359 C45.16906982 41.82686768 45.52734863 42.26555176 45.89648438 42.7175293 C47.51822767 44.70831724 49.13330693 46.70440928 50.74829102 48.70068359 C51.59423828 49.73612305 51.59423828 49.73612305 52.45727539 50.79248047 C52.99545898 51.45957031 53.53364258 52.12666016 54.08813477 52.81396484 C54.58563232 53.42667236 55.08312988 54.03937988 55.59570312 54.6706543 C56.81079102 56.38818359 56.81079102 56.38818359 57.81079102 59.38818359 C34.64762546 61.68156632 34.64762546 61.68156632 30.13110352 58.03027344 C28.96878511 56.21105965 28.14683059 54.46536865 27.37329102 52.45068359 C26.25302077 49.54213806 25.25503781 47.3812375 22.81079102 45.38818359 C14.12470045 43.1558039 4.69572899 43.89225416 -4.18920898 44.38818359 C-4.28008789 45.38398437 -4.28008789 45.38398437 -4.37280273 46.39990234 C-4.49848633 47.72441406 -4.49848633 47.72441406 -4.62670898 49.07568359 C-4.70791992 49.94580078 -4.78913086 50.81591797 -4.87280273 51.71240234 C-5.17764507 54.29039001 -5.68010157 56.84264654 -6.18920898 59.38818359 C-12.45920898 59.38818359 -18.72920898 59.38818359 -25.18920898 59.38818359 C-25.18920898 54.70081756 -25.12047488 51.13299809 -24.31420898 46.67333984 C-24.13374023 45.65820312 -23.95327148 44.64306641 -23.76733398 43.59716797 C-23.57655273 42.55882812 -23.38577148 41.52048828 -23.18920898 40.45068359 C-22.99842773 39.38527344 -22.80764648 38.31986328 -22.61108398 37.22216797 C-22.14250141 34.60982012 -21.66840687 31.99860134 -21.18920898 29.38818359 C-20.5532933 29.38009674 -19.91737762 29.37200989 -19.26219177 29.36367798 C-12.62690675 29.27743478 -5.99191369 29.1779228 0.64306641 29.07080078 C3.11730027 29.03258367 5.59158832 28.99771827 8.06591797 28.96630859 C11.62820767 28.92050057 15.19012671 28.86253117 18.75219727 28.80224609 C19.85350479 28.79069489 20.95481232 28.77914368 22.0894928 28.76724243 C31.72188974 28.84929326 31.72188974 28.84929326 39.81079102 24.38818359 C39.97766549 21.80464141 39.97766549 21.80464141 39.81079102 19.38818359 C33.52243344 17.16876327 27.60088009 17.04506916 20.97094727 16.97412109 C19.84885361 16.95475494 18.72675995 16.93538879 17.57066345 16.91543579 C14.00494872 16.85590344 10.43920124 16.80935981 6.87329102 16.76318359 C4.44814713 16.7249796 2.02301646 16.68592648 -0.40209961 16.64599609 C-6.33101829 16.55022358 -12.2600173 16.46509963 -18.18920898 16.38818359 C-17.24755891 15.11169944 -16.30297508 13.83737918 -15.35717773 12.56396484 C-14.56863403 11.49915894 -14.56863403 11.49915894 -13.76416016 10.4128418 C-11.76917956 7.84822017 -9.54747771 5.61897833 -7.18920898 3.38818359 C-6.73291611 2.85607269 -6.27662323 2.32396179 -5.8065033 1.77572632 C-3.75042196 0.01173032 -2.6825884 0.00866643 0 0 Z " fill="#F3F3F3" transform="translate(415.189208984375,75.61181640625)"/>
<path d="M0 0 C3.42161124 3.3379021 5.2499097 6.99369965 7.3671875 11.2421875 C7.80023193 12.08837646 8.23327637 12.93456543 8.67944336 13.80639648 C9.9834244 16.3623527 11.27086458 18.92605798 12.5546875 21.4921875 C13.25749015 22.88427737 13.96059135 24.27621657 14.6640625 25.66796875 C15.9616473 28.24391962 17.24838557 30.82491033 18.52734375 33.41015625 C20.01785037 36.42170961 21.52970764 39.42173854 23.05078125 42.41796875 C23.4677124 43.24224365 23.88464355 44.06651855 24.31420898 44.91577148 C25.12713707 46.52226841 25.9429528 48.1273081 26.76196289 49.73071289 C29.5546875 55.26742669 29.5546875 55.26742669 29.5546875 57.4921875 C7.1146875 57.4921875 -15.3253125 57.4921875 -38.4453125 57.4921875 C-37.4553125 55.8421875 -36.4653125 54.1921875 -35.4453125 52.4921875 C-34.61773437 51.07679688 -34.61773437 51.07679688 -33.7734375 49.6328125 C-30.58945399 45.20396326 -28.13211804 42.08255099 -22.72753906 40.89501953 C-15.96732522 40.15072625 -9.23300401 40.24855583 -2.4453125 40.4921875 C-5.7453125 34.2221875 -9.0453125 27.9521875 -12.4453125 21.4921875 C-19.38044988 28.86533355 -26.12436567 36.18475396 -32.4453125 44.0859375 C-34.78188921 46.89713135 -37.28187222 49.44893835 -39.9375 51.95703125 C-41.54204087 53.47427335 -41.54204087 53.47427335 -42.70678711 55.5637207 C-44.4453125 57.4921875 -44.4453125 57.4921875 -46.8972168 57.94628906 C-47.84508057 57.9253418 -48.79294434 57.90439453 -49.76953125 57.8828125 C-50.79755859 57.86992187 -51.82558594 57.85703125 -52.88476562 57.84375 C-53.95662109 57.81023437 -55.02847656 57.77671875 -56.1328125 57.7421875 C-57.21626953 57.72414062 -58.29972656 57.70609375 -59.41601562 57.6875 C-62.09333396 57.64032258 -64.76888159 57.57450999 -67.4453125 57.4921875 C-65.64505026 53.63087496 -63.16437659 50.81241935 -60.2578125 47.7421875 C-59.2545174 46.66600831 -58.2519122 45.58918552 -57.25 44.51171875 C-56.76499023 43.99174316 -56.27998047 43.47176758 -55.78027344 42.93603516 C-54.11156772 41.13122067 -52.49128129 39.28827703 -50.8828125 37.4296875 C-48.16753212 34.29318223 -45.37827044 31.2335035 -42.5703125 28.1796875 C-39.16997687 24.45944169 -35.91866857 20.66767997 -32.7578125 16.7421875 C-29.6829531 12.93521872 -26.52819499 9.37422658 -22.99609375 5.98828125 C-21.56710025 4.60968047 -20.22008663 3.1474274 -18.8828125 1.6796875 C-13.34189083 -3.29293451 -6.29411603 -3.8810364 0 0 Z " fill="#EDEDED" transform="translate(354.4453125,77.5078125)"/>
<path d="M0 0 C6.27 0 12.54 0 19 0 C18.37464262 7.19160991 17.30830641 13.80431476 16 21 C26.89 21 37.78 21 49 21 C49.33 18.03 49.66 15.06 50 12 C50.30830925 9.99598989 50.63729412 7.99488234 51 6 C51.165 5.071875 51.33 4.14375 51.5 3.1875 C52 1 52 1 53 0 C54.41570123 -0.08651611 55.835595 -0.10704904 57.25390625 -0.09765625 C58.53491211 -0.09282227 58.53491211 -0.09282227 59.84179688 -0.08789062 C61.18854492 -0.07532227 61.18854492 -0.07532227 62.5625 -0.0625 C63.46419922 -0.05798828 64.36589844 -0.05347656 65.29492188 -0.04882812 C67.53001314 -0.03700225 69.76497437 -0.0205222 72 0 C68.7377833 19.67953472 65.45156843 39.35261046 62 59 C55.4 59 48.8 59 42 59 C42.7115625 54.3903125 42.7115625 54.3903125 43.4375 49.6875 C43.58501709 48.72287842 43.73253418 47.75825684 43.88452148 46.7644043 C44.00384033 46.00039307 44.12315918 45.23638184 44.24609375 44.44921875 C44.36654053 43.66893311 44.4869873 42.88864746 44.61108398 42.0847168 C45 40 45 40 46 37 C35.11 37 24.22 37 13 37 C12.05488025 43.11735858 12.05488025 43.11735858 11.11547852 49.2355957 C10.99615967 49.99960693 10.87684082 50.76361816 10.75390625 51.55078125 C10.63345947 52.33106689 10.5130127 53.11135254 10.38891602 53.9152832 C10 56 10 56 9 59 C2.73 59 -3.54 59 -10 59 C-9.40964911 51.63552171 -8.50675979 44.45394974 -7.1875 37.1875 C-7.01371826 36.21135742 -6.83993652 35.23521484 -6.66088867 34.22949219 C-6.29663667 32.18889588 -5.93015969 30.14869556 -5.56152344 28.10888672 C-4.99658276 24.98108035 -4.43916218 21.85200099 -3.8828125 18.72265625 C-3.52647756 16.73169277 -3.16972197 14.74080452 -2.8125 12.75 C-2.64580811 11.81567139 -2.47911621 10.88134277 -2.30737305 9.91870117 C-2.15051025 9.05349854 -1.99364746 8.1882959 -1.83203125 7.296875 C-1.69514893 6.53729492 -1.5582666 5.77771484 -1.41723633 4.99511719 C-1 3 -1 3 0 0 Z " fill="#EFEFEF" transform="translate(572,76)"/>
<path d="M0 0 C6.27 0 12.54 0 19 0 C19 4.72590034 18.99809286 7.82777493 18 12.1875 C17.28530962 15.33908604 17 17.70694427 17 21 C17.51304687 20.57332031 18.02609375 20.14664063 18.5546875 19.70703125 C20.24405647 18.32766433 21.95714036 16.97718999 23.68359375 15.64453125 C26.14665446 13.73132124 28.43202398 11.68986001 30.72265625 9.57421875 C42.2173018 -0.45145377 51.71121011 -1.3589187 66.7265625 -0.45703125 C68.48514886 -0.31389698 70.24335475 -0.16525999 72 0 C70.60569401 4.18291797 67.63613927 5.50505794 64.078125 7.78125 C63.38112488 8.23600708 62.68412476 8.69076416 61.96600342 9.15930176 C59.73225395 10.61393788 57.4912396 12.05693771 55.25 13.5 C53.75473217 14.47192409 52.25993461 15.44457207 50.765625 16.41796875 C34.48582137 27 34.48582137 27 32 27 C35.93924875 32.41646704 40.94110772 36.47684592 46.07421875 40.7109375 C46.70972656 41.23945312 47.34523438 41.76796875 48 42.3125 C48.5775 42.78300781 49.155 43.25351563 49.75 43.73828125 C51 45 51 45 51 47 C51.56203125 47.23589844 52.1240625 47.47179687 52.703125 47.71484375 C55.53265686 49.29803419 57.48023615 51.25193974 59.75 53.5625 C60.54921875 54.36816406 61.3484375 55.17382812 62.171875 56.00390625 C64 58 64 58 64 59 C60.05406583 59.25013236 56.11128259 59.42993195 52.15917969 59.54931641 C50.16696872 59.62343851 48.17695739 59.75061783 46.1875 59.87890625 C40.53146885 60.02173532 36.57391838 60.09008242 31.82324219 56.79980469 C29.28751129 54.3141623 27.03836172 51.90636358 25 49 C25 48.34 25 47.68 25 47 C24.34 47 23.68 47 23 47 C21.34375 45.3203125 21.34375 45.3203125 19.5 43.125 C17.71066742 41.00964496 15.95980876 38.95980876 14 37 C13.88406494 37.63091553 13.76812988 38.26183105 13.64868164 38.91186523 C13.12399519 41.75450681 12.59332976 44.5959995 12.0625 47.4375 C11.88009766 48.43072266 11.69769531 49.42394531 11.50976562 50.44726562 C11.33251953 51.39150391 11.15527344 52.33574219 10.97265625 53.30859375 C10.81031494 54.18314209 10.64797363 55.05769043 10.48071289 55.95874023 C10 58 10 58 9 59 C7.58429877 59.08651611 6.164405 59.10704904 4.74609375 59.09765625 C3.89208984 59.09443359 3.03808594 59.09121094 2.15820312 59.08789062 C1.26037109 59.07951172 0.36253906 59.07113281 -0.5625 59.0625 C-1.46419922 59.05798828 -2.36589844 59.05347656 -3.29492188 59.04882812 C-5.53001634 59.03700223 -7.76496493 59.01968245 -10 59 C-9.39747552 51.67443496 -8.29043599 44.52552172 -6.93359375 37.3046875 C-6.73524429 36.23123077 -6.53689484 35.15777405 -6.33253479 34.05178833 C-5.70468892 30.65880159 -5.07119126 27.26689936 -4.4375 23.875 C-4.00808798 21.55996546 -3.57904788 19.24486191 -3.15039062 16.9296875 C-2.10455769 11.28565144 -1.05365836 5.64258018 0 0 Z " fill="#EAEAEA" transform="translate(222,76)"/>
<path d="M0 0 C6.6 0 13.2 0 20 0 C19.65066406 1.98902344 19.30132812 3.97804688 18.94140625 6.02734375 C18.60030669 7.98344532 18.25922774 9.93955055 17.91870117 11.89575195 C17.68401462 13.24097722 17.44836116 14.58603421 17.21166992 15.9309082 C14.05752332 28.36074193 14.05752332 28.36074193 15.125 40.5 C19.63213909 44.10571127 26.37124049 43.21776715 31.875 43.25 C32.74769531 43.270625 33.62039062 43.29125 34.51953125 43.3125 C40.1065816 43.34610632 44.17659653 42.93598472 49 40 C51.66447371 35.5993709 52.74879088 31.24712803 53.5703125 26.23046875 C53.69687225 25.50886063 53.82343201 24.7872525 53.9538269 24.04377747 C54.35311588 21.75978575 54.73979434 19.4739053 55.125 17.1875 C55.5192621 14.88363588 55.91621002 12.58029791 56.31759644 10.27766418 C56.56593723 8.84948892 56.80982386 7.42053069 57.04885864 5.99076843 C57.88867071 1.11132929 57.88867071 1.11132929 59 0 C60.41570123 -0.08651611 61.835595 -0.10704904 63.25390625 -0.09765625 C64.53491211 -0.09282227 64.53491211 -0.09282227 65.84179688 -0.08789062 C67.18854492 -0.07532227 67.18854492 -0.07532227 68.5625 -0.0625 C69.46419922 -0.05798828 70.36589844 -0.05347656 71.29492188 -0.04882812 C73.53001314 -0.03700225 75.76497437 -0.0205222 78 0 C76.51806487 9.92447469 74.93320962 19.82815367 73.0625 29.6875 C72.8444873 30.90518066 72.8444873 30.90518066 72.62207031 32.14746094 C70.70214527 41.97439231 66.75017291 48.82506051 58.4375 54.625 C49.55187741 59.8323122 39.51413537 60.48717034 29.4375 60.375 C28.39142578 60.38660156 27.34535156 60.39820313 26.26757812 60.41015625 C16.10312336 60.37229981 6.0208852 58.68078645 -2 52 C-6.4019236 46.17810104 -6.56790339 40.00927506 -5.76586914 32.93481445 C-5.43768766 30.80403866 -5.07189085 28.68384667 -4.6875 26.5625 C-4.55432373 25.79695801 -4.42114746 25.03141602 -4.28393555 24.24267578 C-3.86226855 21.82729212 -3.431307 19.41367886 -3 17 C-2.71031819 15.35036905 -2.42124992 13.70063024 -2.1328125 12.05078125 C-1.43008753 8.03232526 -0.7147835 4.01640254 0 0 Z " fill="#ECECEC" transform="translate(58,76)"/>
<path d="M0 0 C1.48493516 0.02244169 2.9699605 0.03949478 4.45501709 0.05145264 C8.32410316 0.09681419 12.18759702 0.21423001 16.05450439 0.34790039 C20.01603542 0.47168866 23.97848997 0.52567826 27.94140625 0.5859375 C35.68741875 0.71381721 43.42885733 0.91800242 51.171875 1.171875 C49.50666079 4.72486076 47.56220177 6.99012932 44.734375 9.734375 C43.95191406 10.49878906 43.16945313 11.26320313 42.36328125 12.05078125 C41.64011719 12.75074219 40.91695313 13.45070313 40.171875 14.171875 C39.51276123 14.97093262 39.51276123 14.97093262 38.84033203 15.78613281 C36.58202229 17.661779 35.1915739 17.51768771 32.28515625 17.46484375 C31.34736328 17.45517578 30.40957031 17.44550781 29.44335938 17.43554688 C27.97866211 17.3978418 27.97866211 17.3978418 26.484375 17.359375 C25.49630859 17.34583984 24.50824219 17.33230469 23.49023438 17.31835938 C21.05023269 17.28299703 18.61132781 17.23364533 16.171875 17.171875 C16.00099365 18.42025146 16.00099365 18.42025146 15.82666016 19.69384766 C14.57309077 28.67838525 13.11200524 37.61107326 11.546875 46.546875 C11.314912 47.88017492 11.0831404 49.21350814 10.8515625 50.546875 C10.29353488 53.7555338 9.73297527 56.96375209 9.171875 60.171875 C2.571875 60.171875 -4.028125 60.171875 -10.828125 60.171875 C-8.49479167 46.171875 -6.16145833 32.171875 -3.828125 18.171875 C-16.698125 17.676875 -16.698125 17.676875 -29.828125 17.171875 C-23.20446393 3.92455286 -14.45152045 -0.6508558 0 0 Z " fill="#EDEDED" transform="translate(166.828125,74.828125)"/>
<path d="M0 0 C2.25767005 0.06028232 4.51549534 0.11501945 6.7734375 0.1640625 C12.26904869 0.29540337 17.7587913 0.49538713 23.25 0.75 C23.25 1.08 23.25 1.41 23.25 1.75 C22.70035583 1.73588074 22.15071167 1.72176147 21.58441162 1.70721436 C15.80755769 1.57089401 10.03428619 1.5206882 4.25585938 1.51806641 C2.10654239 1.50614008 -0.04277432 1.4730372 -2.19140625 1.41748047 C-5.30188053 1.34087492 -8.40440674 1.34321007 -11.515625 1.359375 C-12.45988342 1.31931335 -13.40414185 1.27925171 -14.37701416 1.23797607 C-25.10536373 1.46086195 -25.97166735 5.97166735 -34.75 14.75 C-4.555 15.245 -4.555 15.245 26.25 15.75 C26.25 16.08 26.25 16.41 26.25 16.75 C4.8 16.75 -16.65 16.75 -38.75 16.75 C-29.95159583 -0.84680834 -18.1702585 -0.8454993 0 0 Z " fill="#8A8A8A" transform="translate(513.75,118.25)"/>
<path d="M0 0 C0.88068649 0.00022659 1.76137299 0.00045319 2.66874695 0.00068665 C3.61570938 0.0161705 4.56267181 0.03165436 5.53833008 0.04760742 C6.51071121 0.05185226 7.48309235 0.05609711 8.48493958 0.06047058 C11.59286099 0.07727302 14.70013567 0.11492838 17.80786133 0.15307617 C19.91397176 0.16812097 22.02009235 0.18180973 24.1262207 0.1940918 C29.29118371 0.22718173 34.45566284 0.27897508 39.62036133 0.34057617 C39.62036133 0.67057617 39.62036133 1.00057617 39.62036133 1.34057617 C38.41089844 1.30802734 37.20143555 1.27547852 35.95532227 1.24194336 C31.41487684 1.13602814 26.87678628 1.11090432 22.33520508 1.10864258 C20.37987578 1.09672769 18.42454538 1.06366659 16.4699707 1.00805664 C13.63726477 0.93130132 10.81326493 0.93380091 7.97973633 0.94995117 C7.12297302 0.90988953 6.26620972 0.86982788 5.38348389 0.82855225 C-4.85101737 1.06145016 -6.09659524 6.05753274 -14.37963867 14.34057617 C8.88536133 14.83557617 8.88536133 14.83557617 32.62036133 15.34057617 C32.62036133 15.67057617 32.62036133 16.00057617 32.62036133 16.34057617 C15.79036133 16.34057617 -1.03963867 16.34057617 -18.37963867 16.34057617 C-11.68196425 7.41034361 -11.68196425 7.41034361 -7.37963867 3.34057617 C-6.92727341 2.80748337 -6.47490814 2.27439056 -6.00883484 1.72514343 C-3.89374548 -0.07235863 -2.74970602 -0.02363644 0 0 Z " fill="#9A9A9A" transform="translate(415.379638671875,75.659423828125)"/>
<path d="M0 0 C0.99 0.33 1.98 0.66 3 1 C0.71643754 3.34138543 -1.57813374 5.67166982 -3.875 8 C-4.85146484 9.00160156 -4.85146484 9.00160156 -5.84765625 10.0234375 C-6.47285156 10.65507812 -7.09804688 11.28671875 -7.7421875 11.9375 C-8.3182373 12.52402344 -8.89428711 13.11054688 -9.48779297 13.71484375 C-11 15 -11 15 -13 15 C-11.38989473 10.92623969 -8.46177729 8.23492931 -5.375 5.25 C-4.859375 4.74339844 -4.34375 4.23679687 -3.8125 3.71484375 C-2.54616661 2.47196098 -1.2736856 1.23534724 0 0 Z " fill="#A2A2A2" transform="translate(488,120)"/>
<path d="M0 0 C0.99 0.33 1.98 0.66 3 1 C2.13375 1.84304687 1.2675 2.68609375 0.375 3.5546875 C-0.75026041 4.66119357 -1.87524628 5.76797888 -3 6.875 C-3.57234375 7.43058594 -4.1446875 7.98617187 -4.734375 8.55859375 C-6.19450782 10.00134404 -7.60149298 11.4974374 -9 13 C-9 13.66 -9 14.32 -9 15 C-10.32 14.67 -11.64 14.34 -13 14 C-9.13600177 9.51241704 -5.25041782 5.12540553 -1 1 C-0.67 0.67 -0.34 0.34 0 0 Z " fill="#A3A3A3" transform="translate(410,77)"/>
<path d="M0 0 C0.66 0.33 1.32 0.66 2 1 C0.88121617 2.17262904 -0.24523051 3.33795138 -1.375 4.5 C-2.00148438 5.1496875 -2.62796875 5.799375 -3.2734375 6.46875 C-5 8 -5 8 -7 8 C-5.50902342 4.2047869 -3.24299151 2.38957269 0 0 Z " fill="#A1A1A1" transform="translate(493,80)"/>
<path d="M0 0 C0.99 0.33 1.98 0.66 3 1 C0.69 3.31 -1.62 5.62 -4 8 C-4.66 7.67 -5.32 7.34 -6 7 C-4.02 4.69 -2.04 2.38 0 0 Z " fill="#A1A1A1" transform="translate(328,120)"/>
</svg>
